<?xml version="1.0" standalone="no"?>
<!DOCTYPE svg PUBLIC "-//W3C//DTD SVG 20010904//EN"
 "http://www.w3.org/TR/2001/REC-SVG-20010904/DTD/svg10.dtd">
<svg version="1.0" xmlns="http://www.w3.org/2000/svg"
 width="211.000000pt" height="211.000000pt" viewBox="0 0 211.000000 211.000000"
 preserveAspectRatio="xMidYMid meet">

<g transform="translate(0.000000,211.000000) scale(0.100000,-0.100000)"
fill="#000000" stroke="none">
<path d="M20 1055 l0 -1035 1035 0 1035 0 0 1035 0 1035 -1035 0 -1035 0 0
-1035z m1881 208 c12 -16 12 -17 -1 -6 -8 6 -26 13 -40 16 l-25 4 26 2 c15 0
33 -7 40 -16z m-20 -35 c7 -27 -3 -38 -16 -18 -4 6 -11 5 -19 -3 -18 -15 -11
-27 17 -28 18 -1 19 -2 4 -6 -19 -5 -57 22 -57 41 0 6 5 4 10 -4 8 -12 10 -10
10 11 0 48 38 53 51 7z m39 -1 c0 -7 -7 -22 -15 -33 -13 -17 -13 -16 -3 14 13
34 18 40 18 19z m-1594 -108 c4 -6 17 -48 29 -93 l22 -81 12 45 c38 143 34
135 70 138 18 2 37 0 42 -5 7 -7 59 -238 59 -259 0 -2 -15 -4 -34 -4 l-33 0
-13 75 c-7 42 -17 78 -21 81 -5 3 -9 -1 -9 -9 0 -8 -9 -45 -20 -81 -20 -62
-23 -66 -51 -66 -34 0 -46 21 -69 120 -15 62 -15 62 -40 -62 -11 -57 -12 -58
-44 -58 l-33 0 24 118 c32 159 29 152 68 152 19 0 37 -5 41 -11z m491 -119
c34 -69 62 -128 62 -132 1 -5 -14 -8 -33 -8 -26 0 -36 5 -41 20 -5 17 -15 20
-66 20 l-60 0 16 30 c11 21 23 30 40 30 29 0 30 4 6 49 l-18 33 -43 -91 c-42
-88 -44 -91 -77 -91 -18 0 -33 2 -33 5 0 8 101 220 116 243 11 17 23 22 42 20
24 -3 35 -18 89 -128z m106 83 c28 -45 30 -69 8 -103 -6 -8 -12 -12 -14 -10
-9 10 -97 150 -97 155 0 3 17 5 38 5 34 0 40 -4 65 -47z m136 -20 c-60 -98
-60 -99 -75 -71 -19 33 -17 46 14 94 24 39 31 44 64 44 l38 0 -41 -67z m226
-63 c36 -71 65 -132 65 -135 0 -3 -16 -5 -35 -5 -24 0 -37 6 -45 20 -9 16 -21
20 -65 20 -30 0 -55 2 -55 5 0 2 5 16 12 30 8 18 19 25 40 25 33 0 33 3 8 50
l-19 35 -42 -92 -43 -93 -38 0 -38 0 67 135 c62 124 70 135 95 135 26 0 33
-10 93 -130z m211 58 l59 -73 3 73 3 72 35 0 35 0 -3 -132 -3 -133 -26 -3
c-23 -3 -37 10 -98 83 l-71 86 0 -85 0 -86 -35 0 -35 0 0 119 c0 66 3 126 6
135 4 10 18 16 39 16 29 0 40 -9 91 -72z m414 37 l0 -34 -97 -3 c-117 -4 -127
-21 -17 -29 90 -6 114 -25 114 -90 0 -68 -21 -79 -150 -79 l-110 0 0 35 0 34
98 3 c78 2 97 6 97 18 0 12 -18 16 -83 20 -96 6 -112 18 -112 82 0 67 22 78
150 78 l110 0 0 -35z m0 -354 c0 -33 -4 -63 -10 -66 -6 -4 -10 18 -10 59 0 37
4 66 10 66 6 0 10 -26 10 -59z m-1632 -21 c3 -45 3 -45 -31 -47 -44 -3 -65 18
-42 41 9 9 25 16 36 16 10 0 19 5 19 11 0 7 -11 9 -30 6 -16 -4 -30 -2 -30 2
0 13 21 20 50 18 22 -2 25 -7 28 -47z m288 25 c15 -23 15 -27 0 -50 -9 -14
-25 -25 -36 -25 -11 0 -20 -7 -20 -15 0 -8 -4 -15 -10 -15 -6 0 -10 27 -10 63
0 62 0 62 30 64 22 2 34 -4 46 -22z m280 14 c17 -14 18 -61 2 -77 -7 -7 -22
-12 -34 -12 -13 0 -24 -7 -27 -17 -3 -10 -5 11 -6 47 -1 64 0 66 25 68 15 1
33 -3 40 -9z m292 -1 c7 -7 12 -29 12 -49 l0 -37 -42 2 c-36 1 -43 4 -43 21 0
13 10 23 30 29 40 13 42 16 25 26 -8 5 -21 5 -31 -1 -26 -13 -33 -11 -19 6 15
18 51 20 68 3z m272 3 c0 -5 -9 -11 -20 -14 -15 -4 -20 -14 -20 -41 0 -20 -4
-36 -10 -36 -10 0 -15 82 -6 91 9 9 56 9 56 0z m264 -10 c24 -26 12 -41 -32
-41 -34 0 -35 -1 -20 -17 14 -14 20 -14 33 -3 17 14 31 8 20 -9 -7 -12 -45
-14 -61 -3 -20 14 -25 45 -9 68 19 29 46 31 69 5z"/>
<path d="M231 709 c-16 -6 -21 -13 -14 -20 13 -13 43 -1 43 17 0 8 -1 14 -2
13 -2 0 -14 -5 -27 -10z"/>
<path d="M516 745 c-20 -20 -20 -26 -2 -50 12 -16 16 -17 30 -6 20 17 21 45 2
60 -11 9 -18 8 -30 -4z"/>
<path d="M798 735 c-8 -19 -8 -28 2 -40 17 -20 27 -19 40 5 8 14 8 26 0 40
-14 27 -28 25 -42 -5z"/>
<path d="M1098 713 c-20 -5 -23 -18 -8 -28 12 -7 40 12 40 26 0 9 -4 10 -32 2z"/>
<path d="M1615 740 c-4 -6 7 -10 25 -10 18 0 29 4 25 10 -3 6 -15 10 -25 10
-10 0 -22 -4 -25 -10z"/>
</g>
</svg>
